<svg width="48" height="48" viewBox="0 0 48 48" fill="none" xmlns="http://www.w3.org/2000/svg">
<path d="M40.5 9H7.5C7.10218 9 6.72064 9.15804 6.43934 9.43934C6.15804 9.72064 6 10.1022 6 10.5V39C6 39.7956 6.31607 40.5587 6.87868 41.1213C7.44129 41.6839 8.20435 42 9 42H16.5C17.2956 42 18.0587 41.6839 18.6213 41.1213C19.1839 40.5587 19.5 39.7956 19.5 39V30H28.5V33C28.5 33.7956 28.8161 34.5587 29.3787 35.1213C29.9413 35.6839 30.7044 36 31.5 36H39C39.7956 36 40.5587 35.6839 41.1213 35.1213C41.6839 34.5587 42 33.7956 42 33V10.5C42 10.1022 41.842 9.72064 41.5607 9.43934C41.2794 9.15804 40.8978 9 40.5 9ZM16.5 39H9V24H16.5V39ZM16.5 21H9V12H16.5V21ZM28.5 27H19.5V12H28.5V27ZM39 33H31.5V24H39V33ZM39 21H31.5V12H39V21Z" fill="#FFFFFF"/>
</svg>
