<svg width="48" height="49" viewBox="0 0 48 49" fill="none" xmlns="http://www.w3.org/2000/svg">
<path d="M43.2975 40.25C40.4419 35.3131 36.0413 31.7731 30.9056 30.095C33.4459 28.5827 35.4196 26.2784 36.5235 23.5359C37.6275 20.7933 37.8006 17.7643 37.0164 14.9138C36.2321 12.0633 34.5339 9.54912 32.1825 7.75724C29.831 5.96536 26.9564 4.9949 24 4.9949C21.0436 4.9949 18.169 5.96536 15.8176 7.75724C13.4661 9.54912 11.7679 12.0633 10.9836 14.9138C10.1994 17.7643 10.3726 20.7933 11.4765 23.5359C12.5804 26.2784 14.5541 28.5827 17.0944 30.095C11.9588 31.7713 7.55813 35.3113 4.7025 40.25C4.59778 40.4208 4.52832 40.6108 4.49822 40.8088C4.46812 41.0068 4.47798 41.2089 4.52724 41.403C4.57649 41.5972 4.66413 41.7795 4.78499 41.9393C4.90585 42.099 5.05747 42.2329 5.23093 42.3331C5.40438 42.4333 5.59614 42.4977 5.79489 42.5226C5.99365 42.5475 6.19538 42.5323 6.38817 42.4779C6.58096 42.4236 6.76092 42.3312 6.91742 42.2062C7.07392 42.0811 7.20379 41.926 7.29938 41.75C10.8319 35.645 17.0756 32 24 32C30.9244 32 37.1681 35.645 40.7006 41.75C40.7962 41.926 40.9261 42.0811 41.0826 42.2062C41.2391 42.3312 41.419 42.4236 41.6118 42.4779C41.8046 42.5323 42.0064 42.5475 42.2051 42.5226C42.4039 42.4977 42.5956 42.4333 42.7691 42.3331C42.9425 42.2329 43.0942 42.099 43.215 41.9393C43.3359 41.7795 43.4235 41.5972 43.4728 41.403C43.522 41.2089 43.5319 41.0068 43.5018 40.8088C43.4717 40.6108 43.4022 40.4208 43.2975 40.25ZM13.5 18.5C13.5 16.4233 14.1158 14.3932 15.2696 12.6665C16.4233 10.9398 18.0632 9.59399 19.9818 8.79927C21.9005 8.00455 24.0117 7.79661 26.0485 8.20176C28.0853 8.6069 29.9562 9.60693 31.4246 11.0754C32.8931 12.5438 33.8931 14.4148 34.2982 16.4516C34.7034 18.4884 34.4955 20.5996 33.7007 22.5182C32.906 24.4368 31.5602 26.0767 29.8335 27.2304C28.1068 28.3842 26.0767 29 24 29C21.2161 28.997 18.5472 27.8898 16.5787 25.9213C14.6102 23.9529 13.503 21.2839 13.5 18.5Z" fill="#233977"/>
</svg>
